<svg width="733" height="168" viewBox="0 0 733 168" xmlns="http://www.w3.org/2000/svg" role="img" aria-labelledby="title desc">
  <title id="title">Development activity matrix</title>
  <desc id="desc">Illustrative, statically generated activity grid in a GitHub-inspired visual style. Not a rendering of real GitHub contribution data.</desc>

  <rect x="0" y="0" width="733" height="168" fill="#0a0d12"/>

  <text x="20" y="20" font-family="SFMono-Regular, Consolas, Menlo, monospace" font-size="13" font-weight="600" fill="#c9d1d9">ACTIVITY MATRIX</text>
  <text x="733" y="20" text-anchor="end" font-family="SFMono-Regular, Consolas, Menlo, monospace" font-size="10.5" fill="#3a4048">illustrative — not live GitHub data</text>

<rect x="20" y="34" width="10" height="10" rx="2" ry="2" fill="#161b22"/>
<rect x="33" y="34" width="10" height="10" rx="2" ry="2" fill="#22a84a"/>
<rect x="46" y="34" width="10" height="10" rx="2" ry="2" fill="#22a84a"/>
<rect x="59" y="34" width="10" height="10" rx="2" ry="2" fill="#3fdc6b"/>
<rect x="72" y="34" width="10" height="10" rx="2" ry="2" fill="#3fdc6b"/>
<rect x="85" y="34" width="10" height="10" rx="2" ry="2" fill="#3fdc6b"/>
<rect x="98" y="34" width="10" height="10" rx="2" ry="2" fill="#3fdc6b"/>
<rect x="111" y="34" width="10" height="10" rx="2" ry="2" fill="#22a84a"/>
<rect x="124" y="34" width="10" height="10" rx="2" ry="2" fill="#22a84a"/>
<rect x="137" y="34" width="10" height="10" rx="2" ry="2" fill="#22a84a"/>
<rect x="150" y="34" width="10" height="10" rx="2" ry="2" fill="#0e7a3c"/>
<rect x="163" y="34" width="10" height="10" rx="2" ry="2" fill="#0e7a3c"/>
<rect x="176" y="34" width="10" height="10" rx="2" ry="2" fill="#0e7a3c"/>
<rect x="189" y="34" width="10" height="10" rx="2" ry="2" fill="#0e7a3c"/>
<rect x="202" y="34" width="10" height="10" rx="2" ry="2" fill="#0e7a3c"/>
<rect x="215" y="34" width="10" height="10" rx="2" ry="2" fill="#0e7a3c"/>
<rect x="228" y="34" width="10" height="10" rx="2" ry="2" fill="#0e7a3c"/>
<rect x="241" y="34" width="10" height="10" rx="2" ry="2" fill="#161b22"/>
<rect x="254" y="34" width="10" height="10" rx="2" ry="2" fill="#0e7a3c"/>
<rect x="267" y="34" width="10" height="10" rx="2" ry="2" fill="#0e7a3c"/>
<rect x="280" y="34" width="10" height="10" rx="2" ry="2" fill="#22a84a"/>
<rect x="293" y="34" width="10" height="10" rx="2" ry="2" fill="#22a84a"/>
<rect x="306" y="34" width="10" height="10" rx="2" ry="2" fill="#22a84a"/>
<rect x="319" y="34" width="10" height="10" rx="2" ry="2" fill="#22a84a"/>
<rect x="332" y="34" width="10" height="10" rx="2" ry="2" fill="#22a84a"/>
<rect x="345" y="34" width="10" height="10" rx="2" ry="2" fill="#22a84a"/>
<rect x="358" y="34" width="10" height="10" rx="2" ry="2" fill="#0e7a3c"/>
<rect x="371" y="34" width="10" height="10" rx="2" ry="2" fill="#0e7a3c"/>
<rect x="384" y="34" width="10" height="10" rx="2" ry="2" fill="#0e7a3c"/>
<rect x="397" y="34" width="10" height="10" rx="2" ry="2" fill="#0a4a2b"/>
<rect x="410" y="34" width="10" height="10" rx="2" ry="2" fill="#161b22"/>
<rect x="423" y="34" width="10" height="10" rx="2" ry="2" fill="#0a4a2b"/>
<rect x="436" y="34" width="10" height="10" rx="2" ry="2" fill="#161b22"/>
<rect x="449" y="34" width="10" height="10" rx="2" ry="2" fill="#161b22"/>
<rect x="462" y="34" width="10" height="10" rx="2" ry="2" fill="#161b22"/>
<rect x="475" y="34" width="10" height="10" rx="2" ry="2" fill="#0a4a2b"/>
<rect x="488" y="34" width="10" height="10" rx="2" ry="2" fill="#0e7a3c"/>
<rect x="501" y="34" width="10" height="10" rx="2" ry="2" fill="#0e7a3c"/>
<rect x="514" y="34" width="10" height="10" rx="2" ry="2" fill="#0e7a3c"/>
<rect x="527" y="34" width="10" height="10" rx="2" ry="2" fill="#22a84a"/>
<rect x="540" y="34" width="10" height="10" rx="2" ry="2" fill="#0e7a3c"/>
<rect x="553" y="34" width="10" height="10" rx="2" ry="2" fill="#0e7a3c"/>
<rect x="566" y="34" width="10" height="10" rx="2" ry="2" fill="#22a84a"/>
<rect x="579" y="34" width="10" height="10" rx="2" ry="2" fill="#0e7a3c"/>
<rect x="592" y="34" width="10" height="10" rx="2" ry="2" fill="#0a4a2b"/>
<rect x="605" y="34" width="10" height="10" rx="2" ry="2" fill="#0e7a3c"/>
<rect x="618" y="34" width="10" height="10" rx="2" ry="2" fill="#0a4a2b"/>
<rect x="631" y="34" width="10" height="10" rx="2" ry="2" fill="#0a4a2b"/>
<rect x="644" y="34" width="10" height="10" rx="2" ry="2" fill="#0a4a2b"/>
<rect x="657" y="34" width="10" height="10" rx="2" ry="2" fill="#161b22"/>
<rect x="670" y="34" width="10" height="10" rx="2" ry="2" fill="#0a4a2b"/>
<rect x="683" y="34" width="10" height="10" rx="2" ry="2" fill="#161b22"/>
<rect x="20" y="47" width="10" height="10" rx="2" ry="2" fill="#3fdc6b"/>
<rect x="33" y="47" width="10" height="10" rx="2" ry="2" fill="#3fdc6b"/>
<rect x="46" y="47" width="10" height="10" rx="2" ry="2" fill="#3fdc6b"/>
<rect x="59" y="47" width="10" height="10" rx="2" ry="2" fill="#3fdc6b"/>
<rect x="72" y="47" width="10" height="10" rx="2" ry="2" fill="#3fdc6b"/>
<rect x="85" y="47" width="10" height="10" rx="2" ry="2" fill="#3fdc6b"/>
<rect x="98" y="47" width="10" height="10" rx="2" ry="2" fill="#22a84a"/>
<rect x="111" y="47" width="10" height="10" rx="2" ry="2" fill="#3fdc6b"/>
<rect x="124" y="47" width="10" height="10" rx="2" ry="2" fill="#22a84a"/>
<rect x="137" y="47" width="10" height="10" rx="2" ry="2" fill="#22a84a"/>
<rect x="150" y="47" width="10" height="10" rx="2" ry="2" fill="#0e7a3c"/>
<rect x="163" y="47" width="10" height="10" rx="2" ry="2" fill="#0e7a3c"/>
<rect x="176" y="47" width="10" height="10" rx="2" ry="2" fill="#22a84a"/>
<rect x="189" y="47" width="10" height="10" rx="2" ry="2" fill="#161b22"/>
<rect x="202" y="47" width="10" height="10" rx="2" ry="2" fill="#0e7a3c"/>
<rect x="215" y="47" width="10" height="10" rx="2" ry="2" fill="#22a84a"/>
<rect x="228" y="47" width="10" height="10" rx="2" ry="2" fill="#22a84a"/>
<rect x="241" y="47" width="10" height="10" rx="2" ry="2" fill="#22a84a"/>
<rect x="254" y="47" width="10" height="10" rx="2" ry="2" fill="#3fdc6b"/>
<rect x="267" y="47" width="10" height="10" rx="2" ry="2" fill="#3fdc6b"/>
<rect x="280" y="47" width="10" height="10" rx="2" ry="2" fill="#3fdc6b"/>
<rect x="293" y="47" width="10" height="10" rx="2" ry="2" fill="#3fdc6b"/>
<rect x="306" y="47" width="10" height="10" rx="2" ry="2" fill="#22a84a"/>
<rect x="319" y="47" width="10" height="10" rx="2" ry="2" fill="#3fdc6b"/>
<rect x="332" y="47" width="10" height="10" rx="2" ry="2" fill="#22a84a"/>
<rect x="345" y="47" width="10" height="10" rx="2" ry="2" fill="#0e7a3c"/>
<rect x="358" y="47" width="10" height="10" rx="2" ry="2" fill="#0e7a3c"/>
<rect x="371" y="47" width="10" height="10" rx="2" ry="2" fill="#0a4a2b"/>
<rect x="384" y="47" width="10" height="10" rx="2" ry="2" fill="#161b22"/>
<rect x="397" y="47" width="10" height="10" rx="2" ry="2" fill="#0a4a2b"/>
<rect x="410" y="47" width="10" height="10" rx="2" ry="2" fill="#161b22"/>
<rect x="423" y="47" width="10" height="10" rx="2" ry="2" fill="#0a4a2b"/>
<rect x="436" y="47" width="10" height="10" rx="2" ry="2" fill="#0a4a2b"/>
<rect x="449" y="47" width="10" height="10" rx="2" ry="2" fill="#0a4a2b"/>
<rect x="462" y="47" width="10" height="10" rx="2" ry="2" fill="#0e7a3c"/>
<rect x="475" y="47" width="10" height="10" rx="2" ry="2" fill="#0e7a3c"/>
<rect x="488" y="47" width="10" height="10" rx="2" ry="2" fill="#0e7a3c"/>
<rect x="501" y="47" width="10" height="10" rx="2" ry="2" fill="#22a84a"/>
<rect x="514" y="47" width="10" height="10" rx="2" ry="2" fill="#22a84a"/>
<rect x="527" y="47" width="10" height="10" rx="2" ry="2" fill="#0e7a3c"/>
<rect x="540" y="47" width="10" height="10" rx="2" ry="2" fill="#22a84a"/>
<rect x="553" y="47" width="10" height="10" rx="2" ry="2" fill="#0e7a3c"/>
<rect x="566" y="47" width="10" height="10" rx="2" ry="2" fill="#22a84a"/>
<rect x="579" y="47" width="10" height="10" rx="2" ry="2" fill="#0e7a3c"/>
<rect x="592" y="47" width="10" height="10" rx="2" ry="2" fill="#0a4a2b"/>
<rect x="605" y="47" width="10" height="10" rx="2" ry="2" fill="#0e7a3c"/>
<rect x="618" y="47" width="10" height="10" rx="2" ry="2" fill="#0a4a2b"/>
<rect x="631" y="47" width="10" height="10" rx="2" ry="2" fill="#161b22"/>
<rect x="644" y="47" width="10" height="10" rx="2" ry="2" fill="#0a4a2b"/>
<rect x="657" y="47" width="10" height="10" rx="2" ry="2" fill="#0a4a2b"/>
<rect x="670" y="47" width="10" height="10" rx="2" ry="2" fill="#0a4a2b"/>
<rect x="683" y="47" width="10" height="10" rx="2" ry="2" fill="#0e7a3c"/>
<rect x="20" y="60" width="10" height="10" rx="2" ry="2" fill="#3fdc6b"/>
<rect x="33" y="60" width="10" height="10" rx="2" ry="2" fill="#3fdc6b"/>
<rect x="46" y="60" width="10" height="10" rx="2" ry="2" fill="#3fdc6b"/>
<rect x="59" y="60" width="10" height="10" rx="2" ry="2" fill="#3fdc6b"/>
<rect x="72" y="60" width="10" height="10" rx="2" ry="2" fill="#3fdc6b"/>
<rect x="85" y="60" width="10" height="10" rx="2" ry="2" fill="#3fdc6b"/>
<rect x="98" y="60" width="10" height="10" rx="2" ry="2" fill="#22a84a"/>
<rect x="111" y="60" width="10" height="10" rx="2" ry="2" fill="#22a84a"/>
<rect x="124" y="60" width="10" height="10" rx="2" ry="2" fill="#22a84a"/>
<rect x="137" y="60" width="10" height="10" rx="2" ry="2" fill="#161b22"/>
<rect x="150" y="60" width="10" height="10" rx="2" ry="2" fill="#22a84a"/>
<rect x="163" y="60" width="10" height="10" rx="2" ry="2" fill="#0e7a3c"/>
<rect x="176" y="60" width="10" height="10" rx="2" ry="2" fill="#0e7a3c"/>
<rect x="189" y="60" width="10" height="10" rx="2" ry="2" fill="#22a84a"/>
<rect x="202" y="60" width="10" height="10" rx="2" ry="2" fill="#22a84a"/>
<rect x="215" y="60" width="10" height="10" rx="2" ry="2" fill="#3fdc6b"/>
<rect x="228" y="60" width="10" height="10" rx="2" ry="2" fill="#3fdc6b"/>
<rect x="241" y="60" width="10" height="10" rx="2" ry="2" fill="#3fdc6b"/>
<rect x="254" y="60" width="10" height="10" rx="2" ry="2" fill="#3fdc6b"/>
<rect x="267" y="60" width="10" height="10" rx="2" ry="2" fill="#3fdc6b"/>
<rect x="280" y="60" width="10" height="10" rx="2" ry="2" fill="#22a84a"/>
<rect x="293" y="60" width="10" height="10" rx="2" ry="2" fill="#3fdc6b"/>
<rect x="306" y="60" width="10" height="10" rx="2" ry="2" fill="#22a84a"/>
<rect x="319" y="60" width="10" height="10" rx="2" ry="2" fill="#0e7a3c"/>
<rect x="332" y="60" width="10" height="10" rx="2" ry="2" fill="#0e7a3c"/>
<rect x="345" y="60" width="10" height="10" rx="2" ry="2" fill="#0a4a2b"/>
<rect x="358" y="60" width="10" height="10" rx="2" ry="2" fill="#161b22"/>
<rect x="371" y="60" width="10" height="10" rx="2" ry="2" fill="#0a4a2b"/>
<rect x="384" y="60" width="10" height="10" rx="2" ry="2" fill="#161b22"/>
<rect x="397" y="60" width="10" height="10" rx="2" ry="2" fill="#0e7a3c"/>
<rect x="410" y="60" width="10" height="10" rx="2" ry="2" fill="#0a4a2b"/>
<rect x="423" y="60" width="10" height="10" rx="2" ry="2" fill="#0a4a2b"/>
<rect x="436" y="60" width="10" height="10" rx="2" ry="2" fill="#0e7a3c"/>
<rect x="449" y="60" width="10" height="10" rx="2" ry="2" fill="#0e7a3c"/>
<rect x="462" y="60" width="10" height="10" rx="2" ry="2" fill="#0e7a3c"/>
<rect x="475" y="60" width="10" height="10" rx="2" ry="2" fill="#22a84a"/>
<rect x="488" y="60" width="10" height="10" rx="2" ry="2" fill="#22a84a"/>
<rect x="501" y="60" width="10" height="10" rx="2" ry="2" fill="#3fdc6b"/>
<rect x="514" y="60" width="10" height="10" rx="2" ry="2" fill="#22a84a"/>
<rect x="527" y="60" width="10" height="10" rx="2" ry="2" fill="#0e7a3c"/>
<rect x="540" y="60" width="10" height="10" rx="2" ry="2" fill="#22a84a"/>
<rect x="553" y="60" width="10" height="10" rx="2" ry="2" fill="#0e7a3c"/>
<rect x="566" y="60" width="10" height="10" rx="2" ry="2" fill="#0a4a2b"/>
<rect x="579" y="60" width="10" height="10" rx="2" ry="2" fill="#161b22"/>
<rect x="592" y="60" width="10" height="10" rx="2" ry="2" fill="#0a4a2b"/>
<rect x="605" y="60" width="10" height="10" rx="2" ry="2" fill="#161b22"/>
<rect x="618" y="60" width="10" height="10" rx="2" ry="2" fill="#0a4a2b"/>
<rect x="631" y="60" width="10" height="10" rx="2" ry="2" fill="#0a4a2b"/>
<rect x="644" y="60" width="10" height="10" rx="2" ry="2" fill="#0e7a3c"/>
<rect x="657" y="60" width="10" height="10" rx="2" ry="2" fill="#0e7a3c"/>
<rect x="670" y="60" width="10" height="10" rx="2" ry="2" fill="#0e7a3c"/>
<rect x="683" y="60" width="10" height="10" rx="2" ry="2" fill="#22a84a"/>
<rect x="20" y="73" width="10" height="10" rx="2" ry="2" fill="#3fdc6b"/>
<rect x="33" y="73" width="10" height="10" rx="2" ry="2" fill="#3fdc6b"/>
<rect x="46" y="73" width="10" height="10" rx="2" ry="2" fill="#3fdc6b"/>
<rect x="59" y="73" width="10" height="10" rx="2" ry="2" fill="#3fdc6b"/>
<rect x="72" y="73" width="10" height="10" rx="2" ry="2" fill="#22a84a"/>
<rect x="85" y="73" width="10" height="10" rx="2" ry="2" fill="#161b22"/>
<rect x="98" y="73" width="10" height="10" rx="2" ry="2" fill="#22a84a"/>
<rect x="111" y="73" width="10" height="10" rx="2" ry="2" fill="#0e7a3c"/>
<rect x="124" y="73" width="10" height="10" rx="2" ry="2" fill="#22a84a"/>
<rect x="137" y="73" width="10" height="10" rx="2" ry="2" fill="#0e7a3c"/>
<rect x="150" y="73" width="10" height="10" rx="2" ry="2" fill="#22a84a"/>
<rect x="163" y="73" width="10" height="10" rx="2" ry="2" fill="#22a84a"/>
<rect x="176" y="73" width="10" height="10" rx="2" ry="2" fill="#22a84a"/>
<rect x="189" y="73" width="10" height="10" rx="2" ry="2" fill="#3fdc6b"/>
<rect x="202" y="73" width="10" height="10" rx="2" ry="2" fill="#3fdc6b"/>
<rect x="215" y="73" width="10" height="10" rx="2" ry="2" fill="#3fdc6b"/>
<rect x="228" y="73" width="10" height="10" rx="2" ry="2" fill="#3fdc6b"/>
<rect x="241" y="73" width="10" height="10" rx="2" ry="2" fill="#3fdc6b"/>
<rect x="254" y="73" width="10" height="10" rx="2" ry="2" fill="#3fdc6b"/>
<rect x="267" y="73" width="10" height="10" rx="2" ry="2" fill="#3fdc6b"/>
<rect x="280" y="73" width="10" height="10" rx="2" ry="2" fill="#22a84a"/>
<rect x="293" y="73" width="10" height="10" rx="2" ry="2" fill="#22a84a"/>
<rect x="306" y="73" width="10" height="10" rx="2" ry="2" fill="#161b22"/>
<rect x="319" y="73" width="10" height="10" rx="2" ry="2" fill="#0e7a3c"/>
<rect x="332" y="73" width="10" height="10" rx="2" ry="2" fill="#0e7a3c"/>
<rect x="345" y="73" width="10" height="10" rx="2" ry="2" fill="#0a4a2b"/>
<rect x="358" y="73" width="10" height="10" rx="2" ry="2" fill="#0a4a2b"/>
<rect x="371" y="73" width="10" height="10" rx="2" ry="2" fill="#0e7a3c"/>
<rect x="384" y="73" width="10" height="10" rx="2" ry="2" fill="#0a4a2b"/>
<rect x="397" y="73" width="10" height="10" rx="2" ry="2" fill="#0a4a2b"/>
<rect x="410" y="73" width="10" height="10" rx="2" ry="2" fill="#0e7a3c"/>
<rect x="423" y="73" width="10" height="10" rx="2" ry="2" fill="#0e7a3c"/>
<rect x="436" y="73" width="10" height="10" rx="2" ry="2" fill="#22a84a"/>
<rect x="449" y="73" width="10" height="10" rx="2" ry="2" fill="#22a84a"/>
<rect x="462" y="73" width="10" height="10" rx="2" ry="2" fill="#22a84a"/>
<rect x="475" y="73" width="10" height="10" rx="2" ry="2" fill="#3fdc6b"/>
<rect x="488" y="73" width="10" height="10" rx="2" ry="2" fill="#22a84a"/>
<rect x="501" y="73" width="10" height="10" rx="2" ry="2" fill="#0e7a3c"/>
<rect x="514" y="73" width="10" height="10" rx="2" ry="2" fill="#22a84a"/>
<rect x="527" y="73" width="10" height="10" rx="2" ry="2" fill="#161b22"/>
<rect x="540" y="73" width="10" height="10" rx="2" ry="2" fill="#0a4a2b"/>
<rect x="553" y="73" width="10" height="10" rx="2" ry="2" fill="#0a4a2b"/>
<rect x="566" y="73" width="10" height="10" rx="2" ry="2" fill="#161b22"/>
<rect x="579" y="73" width="10" height="10" rx="2" ry="2" fill="#0a4a2b"/>
<rect x="592" y="73" width="10" height="10" rx="2" ry="2" fill="#0a4a2b"/>
<rect x="605" y="73" width="10" height="10" rx="2" ry="2" fill="#0a4a2b"/>
<rect x="618" y="73" width="10" height="10" rx="2" ry="2" fill="#0e7a3c"/>
<rect x="631" y="73" width="10" height="10" rx="2" ry="2" fill="#0e7a3c"/>
<rect x="644" y="73" width="10" height="10" rx="2" ry="2" fill="#0e7a3c"/>
<rect x="657" y="73" width="10" height="10" rx="2" ry="2" fill="#22a84a"/>
<rect x="670" y="73" width="10" height="10" rx="2" ry="2" fill="#22a84a"/>
<rect x="683" y="73" width="10" height="10" rx="2" ry="2" fill="#22a84a"/>
<rect x="20" y="86" width="10" height="10" rx="2" ry="2" fill="#3fdc6b"/>
<rect x="33" y="86" width="10" height="10" rx="2" ry="2" fill="#161b22"/>
<rect x="46" y="86" width="10" height="10" rx="2" ry="2" fill="#22a84a"/>
<rect x="59" y="86" width="10" height="10" rx="2" ry="2" fill="#22a84a"/>
<rect x="72" y="86" width="10" height="10" rx="2" ry="2" fill="#0e7a3c"/>
<rect x="85" y="86" width="10" height="10" rx="2" ry="2" fill="#22a84a"/>
<rect x="98" y="86" width="10" height="10" rx="2" ry="2" fill="#22a84a"/>
<rect x="111" y="86" width="10" height="10" rx="2" ry="2" fill="#0e7a3c"/>
<rect x="124" y="86" width="10" height="10" rx="2" ry="2" fill="#22a84a"/>
<rect x="137" y="86" width="10" height="10" rx="2" ry="2" fill="#22a84a"/>
<rect x="150" y="86" width="10" height="10" rx="2" ry="2" fill="#22a84a"/>
<rect x="163" y="86" width="10" height="10" rx="2" ry="2" fill="#3fdc6b"/>
<rect x="176" y="86" width="10" height="10" rx="2" ry="2" fill="#3fdc6b"/>
<rect x="189" y="86" width="10" height="10" rx="2" ry="2" fill="#3fdc6b"/>
<rect x="202" y="86" width="10" height="10" rx="2" ry="2" fill="#3fdc6b"/>
<rect x="215" y="86" width="10" height="10" rx="2" ry="2" fill="#3fdc6b"/>
<rect x="228" y="86" width="10" height="10" rx="2" ry="2" fill="#3fdc6b"/>
<rect x="241" y="86" width="10" height="10" rx="2" ry="2" fill="#3fdc6b"/>
<rect x="254" y="86" width="10" height="10" rx="2" ry="2" fill="#161b22"/>
<rect x="267" y="86" width="10" height="10" rx="2" ry="2" fill="#22a84a"/>
<rect x="280" y="86" width="10" height="10" rx="2" ry="2" fill="#0e7a3c"/>
<rect x="293" y="86" width="10" height="10" rx="2" ry="2" fill="#0a4a2b"/>
<rect x="306" y="86" width="10" height="10" rx="2" ry="2" fill="#0e7a3c"/>
<rect x="319" y="86" width="10" height="10" rx="2" ry="2" fill="#0a4a2b"/>
<rect x="332" y="86" width="10" height="10" rx="2" ry="2" fill="#0a4a2b"/>
<rect x="345" y="86" width="10" height="10" rx="2" ry="2" fill="#0e7a3c"/>
<rect x="358" y="86" width="10" height="10" rx="2" ry="2" fill="#0a4a2b"/>
<rect x="371" y="86" width="10" height="10" rx="2" ry="2" fill="#0e7a3c"/>
<rect x="384" y="86" width="10" height="10" rx="2" ry="2" fill="#0e7a3c"/>
<rect x="397" y="86" width="10" height="10" rx="2" ry="2" fill="#0e7a3c"/>
<rect x="410" y="86" width="10" height="10" rx="2" ry="2" fill="#22a84a"/>
<rect x="423" y="86" width="10" height="10" rx="2" ry="2" fill="#22a84a"/>
<rect x="436" y="86" width="10" height="10" rx="2" ry="2" fill="#22a84a"/>
<rect x="449" y="86" width="10" height="10" rx="2" ry="2" fill="#22a84a"/>
<rect x="462" y="86" width="10" height="10" rx="2" ry="2" fill="#22a84a"/>
<rect x="475" y="86" width="10" height="10" rx="2" ry="2" fill="#161b22"/>
<rect x="488" y="86" width="10" height="10" rx="2" ry="2" fill="#0e7a3c"/>
<rect x="501" y="86" width="10" height="10" rx="2" ry="2" fill="#0e7a3c"/>
<rect x="514" y="86" width="10" height="10" rx="2" ry="2" fill="#0e7a3c"/>
<rect x="527" y="86" width="10" height="10" rx="2" ry="2" fill="#0a4a2b"/>
<rect x="540" y="86" width="10" height="10" rx="2" ry="2" fill="#161b22"/>
<rect x="553" y="86" width="10" height="10" rx="2" ry="2" fill="#0a4a2b"/>
<rect x="566" y="86" width="10" height="10" rx="2" ry="2" fill="#0a4a2b"/>
<rect x="579" y="86" width="10" height="10" rx="2" ry="2" fill="#161b22"/>
<rect x="592" y="86" width="10" height="10" rx="2" ry="2" fill="#0e7a3c"/>
<rect x="605" y="86" width="10" height="10" rx="2" ry="2" fill="#0e7a3c"/>
<rect x="618" y="86" width="10" height="10" rx="2" ry="2" fill="#0e7a3c"/>
<rect x="631" y="86" width="10" height="10" rx="2" ry="2" fill="#22a84a"/>
<rect x="644" y="86" width="10" height="10" rx="2" ry="2" fill="#22a84a"/>
<rect x="657" y="86" width="10" height="10" rx="2" ry="2" fill="#3fdc6b"/>
<rect x="670" y="86" width="10" height="10" rx="2" ry="2" fill="#3fdc6b"/>
<rect x="683" y="86" width="10" height="10" rx="2" ry="2" fill="#22a84a"/>
<rect x="20" y="99" width="10" height="10" rx="2" ry="2" fill="#22a84a"/>
<rect x="33" y="99" width="10" height="10" rx="2" ry="2" fill="#0e7a3c"/>
<rect x="46" y="99" width="10" height="10" rx="2" ry="2" fill="#0e7a3c"/>
<rect x="59" y="99" width="10" height="10" rx="2" ry="2" fill="#0e7a3c"/>
<rect x="72" y="99" width="10" height="10" rx="2" ry="2" fill="#0e7a3c"/>
<rect x="85" y="99" width="10" height="10" rx="2" ry="2" fill="#0e7a3c"/>
<rect x="98" y="99" width="10" height="10" rx="2" ry="2" fill="#0e7a3c"/>
<rect x="111" y="99" width="10" height="10" rx="2" ry="2" fill="#0e7a3c"/>
<rect x="124" y="99" width="10" height="10" rx="2" ry="2" fill="#0e7a3c"/>
<rect x="137" y="99" width="10" height="10" rx="2" ry="2" fill="#22a84a"/>
<rect x="150" y="99" width="10" height="10" rx="2" ry="2" fill="#22a84a"/>
<rect x="163" y="99" width="10" height="10" rx="2" ry="2" fill="#3fdc6b"/>
<rect x="176" y="99" width="10" height="10" rx="2" ry="2" fill="#22a84a"/>
<rect x="189" y="99" width="10" height="10" rx="2" ry="2" fill="#22a84a"/>
<rect x="202" y="99" width="10" height="10" rx="2" ry="2" fill="#161b22"/>
<rect x="215" y="99" width="10" height="10" rx="2" ry="2" fill="#22a84a"/>
<rect x="228" y="99" width="10" height="10" rx="2" ry="2" fill="#0e7a3c"/>
<rect x="241" y="99" width="10" height="10" rx="2" ry="2" fill="#0e7a3c"/>
<rect x="254" y="99" width="10" height="10" rx="2" ry="2" fill="#0e7a3c"/>
<rect x="267" y="99" width="10" height="10" rx="2" ry="2" fill="#0a4a2b"/>
<rect x="280" y="99" width="10" height="10" rx="2" ry="2" fill="#0a4a2b"/>
<rect x="293" y="99" width="10" height="10" rx="2" ry="2" fill="#0a4a2b"/>
<rect x="306" y="99" width="10" height="10" rx="2" ry="2" fill="#0a4a2b"/>
<rect x="319" y="99" width="10" height="10" rx="2" ry="2" fill="#0a4a2b"/>
<rect x="332" y="99" width="10" height="10" rx="2" ry="2" fill="#0a4a2b"/>
<rect x="345" y="99" width="10" height="10" rx="2" ry="2" fill="#0e7a3c"/>
<rect x="358" y="99" width="10" height="10" rx="2" ry="2" fill="#0e7a3c"/>
<rect x="371" y="99" width="10" height="10" rx="2" ry="2" fill="#0e7a3c"/>
<rect x="384" y="99" width="10" height="10" rx="2" ry="2" fill="#0e7a3c"/>
<rect x="397" y="99" width="10" height="10" rx="2" ry="2" fill="#0e7a3c"/>
<rect x="410" y="99" width="10" height="10" rx="2" ry="2" fill="#0e7a3c"/>
<rect x="423" y="99" width="10" height="10" rx="2" ry="2" fill="#161b22"/>
<rect x="436" y="99" width="10" height="10" rx="2" ry="2" fill="#0e7a3c"/>
<rect x="449" y="99" width="10" height="10" rx="2" ry="2" fill="#0e7a3c"/>
<rect x="462" y="99" width="10" height="10" rx="2" ry="2" fill="#0e7a3c"/>
<rect x="475" y="99" width="10" height="10" rx="2" ry="2" fill="#0a4a2b"/>
<rect x="488" y="99" width="10" height="10" rx="2" ry="2" fill="#0a4a2b"/>
<rect x="501" y="99" width="10" height="10" rx="2" ry="2" fill="#0a4a2b"/>
<rect x="514" y="99" width="10" height="10" rx="2" ry="2" fill="#161b22"/>
<rect x="527" y="99" width="10" height="10" rx="2" ry="2" fill="#161b22"/>
<rect x="540" y="99" width="10" height="10" rx="2" ry="2" fill="#161b22"/>
<rect x="553" y="99" width="10" height="10" rx="2" ry="2" fill="#161b22"/>
<rect x="566" y="99" width="10" height="10" rx="2" ry="2" fill="#0a4a2b"/>
<rect x="579" y="99" width="10" height="10" rx="2" ry="2" fill="#0a4a2b"/>
<rect x="592" y="99" width="10" height="10" rx="2" ry="2" fill="#0e7a3c"/>
<rect x="605" y="99" width="10" height="10" rx="2" ry="2" fill="#0e7a3c"/>
<rect x="618" y="99" width="10" height="10" rx="2" ry="2" fill="#0e7a3c"/>
<rect x="631" y="99" width="10" height="10" rx="2" ry="2" fill="#22a84a"/>
<rect x="644" y="99" width="10" height="10" rx="2" ry="2" fill="#161b22"/>
<rect x="657" y="99" width="10" height="10" rx="2" ry="2" fill="#0e7a3c"/>
<rect x="670" y="99" width="10" height="10" rx="2" ry="2" fill="#22a84a"/>
<rect x="683" y="99" width="10" height="10" rx="2" ry="2" fill="#0e7a3c"/>
<rect x="20" y="112" width="10" height="10" rx="2" ry="2" fill="#0a4a2b"/>
<rect x="33" y="112" width="10" height="10" rx="2" ry="2" fill="#0e7a3c"/>
<rect x="46" y="112" width="10" height="10" rx="2" ry="2" fill="#0e7a3c"/>
<rect x="59" y="112" width="10" height="10" rx="2" ry="2" fill="#0a4a2b"/>
<rect x="72" y="112" width="10" height="10" rx="2" ry="2" fill="#0e7a3c"/>
<rect x="85" y="112" width="10" height="10" rx="2" ry="2" fill="#0e7a3c"/>
<rect x="98" y="112" width="10" height="10" rx="2" ry="2" fill="#22a84a"/>
<rect x="111" y="112" width="10" height="10" rx="2" ry="2" fill="#22a84a"/>
<rect x="124" y="112" width="10" height="10" rx="2" ry="2" fill="#22a84a"/>
<rect x="137" y="112" width="10" height="10" rx="2" ry="2" fill="#22a84a"/>
<rect x="150" y="112" width="10" height="10" rx="2" ry="2" fill="#161b22"/>
<rect x="163" y="112" width="10" height="10" rx="2" ry="2" fill="#22a84a"/>
<rect x="176" y="112" width="10" height="10" rx="2" ry="2" fill="#22a84a"/>
<rect x="189" y="112" width="10" height="10" rx="2" ry="2" fill="#0e7a3c"/>
<rect x="202" y="112" width="10" height="10" rx="2" ry="2" fill="#0e7a3c"/>
<rect x="215" y="112" width="10" height="10" rx="2" ry="2" fill="#0e7a3c"/>
<rect x="228" y="112" width="10" height="10" rx="2" ry="2" fill="#0e7a3c"/>
<rect x="241" y="112" width="10" height="10" rx="2" ry="2" fill="#0e7a3c"/>
<rect x="254" y="112" width="10" height="10" rx="2" ry="2" fill="#0a4a2b"/>
<rect x="267" y="112" width="10" height="10" rx="2" ry="2" fill="#0a4a2b"/>
<rect x="280" y="112" width="10" height="10" rx="2" ry="2" fill="#0a4a2b"/>
<rect x="293" y="112" width="10" height="10" rx="2" ry="2" fill="#0a4a2b"/>
<rect x="306" y="112" width="10" height="10" rx="2" ry="2" fill="#0a4a2b"/>
<rect x="319" y="112" width="10" height="10" rx="2" ry="2" fill="#0e7a3c"/>
<rect x="332" y="112" width="10" height="10" rx="2" ry="2" fill="#0e7a3c"/>
<rect x="345" y="112" width="10" height="10" rx="2" ry="2" fill="#0a4a2b"/>
<rect x="358" y="112" width="10" height="10" rx="2" ry="2" fill="#0e7a3c"/>
<rect x="371" y="112" width="10" height="10" rx="2" ry="2" fill="#161b22"/>
<rect x="384" y="112" width="10" height="10" rx="2" ry="2" fill="#0e7a3c"/>
<rect x="397" y="112" width="10" height="10" rx="2" ry="2" fill="#0e7a3c"/>
<rect x="410" y="112" width="10" height="10" rx="2" ry="2" fill="#0e7a3c"/>
<rect x="423" y="112" width="10" height="10" rx="2" ry="2" fill="#0e7a3c"/>
<rect x="436" y="112" width="10" height="10" rx="2" ry="2" fill="#0a4a2b"/>
<rect x="449" y="112" width="10" height="10" rx="2" ry="2" fill="#0a4a2b"/>
<rect x="462" y="112" width="10" height="10" rx="2" ry="2" fill="#0a4a2b"/>
<rect x="475" y="112" width="10" height="10" rx="2" ry="2" fill="#161b22"/>
<rect x="488" y="112" width="10" height="10" rx="2" ry="2" fill="#161b22"/>
<rect x="501" y="112" width="10" height="10" rx="2" ry="2" fill="#161b22"/>
<rect x="514" y="112" width="10" height="10" rx="2" ry="2" fill="#161b22"/>
<rect x="527" y="112" width="10" height="10" rx="2" ry="2" fill="#0a4a2b"/>
<rect x="540" y="112" width="10" height="10" rx="2" ry="2" fill="#0a4a2b"/>
<rect x="553" y="112" width="10" height="10" rx="2" ry="2" fill="#0a4a2b"/>
<rect x="566" y="112" width="10" height="10" rx="2" ry="2" fill="#0e7a3c"/>
<rect x="579" y="112" width="10" height="10" rx="2" ry="2" fill="#0e7a3c"/>
<rect x="592" y="112" width="10" height="10" rx="2" ry="2" fill="#161b22"/>
<rect x="605" y="112" width="10" height="10" rx="2" ry="2" fill="#0e7a3c"/>
<rect x="618" y="112" width="10" height="10" rx="2" ry="2" fill="#0e7a3c"/>
<rect x="631" y="112" width="10" height="10" rx="2" ry="2" fill="#0e7a3c"/>
<rect x="644" y="112" width="10" height="10" rx="2" ry="2" fill="#0e7a3c"/>
<rect x="657" y="112" width="10" height="10" rx="2" ry="2" fill="#0e7a3c"/>
<rect x="670" y="112" width="10" height="10" rx="2" ry="2" fill="#0e7a3c"/>
<rect x="683" y="112" width="10" height="10" rx="2" ry="2" fill="#0e7a3c"/>
  <g font-family="SFMono-Regular, Consolas, Menlo, monospace" font-size="10.5" fill="#6e7681">
    <text x="20" y="152">less</text>
    <rect x="52" y="143" width="10" height="10" rx="2" fill="#161b22"/>
    <rect x="65" y="143" width="10" height="10" rx="2" fill="#0a4a2b"/>
    <rect x="78" y="143" width="10" height="10" rx="2" fill="#0e7a3c"/>
    <rect x="91" y="143" width="10" height="10" rx="2" fill="#22a84a"/>
    <rect x="104" y="143" width="10" height="10" rx="2" fill="#3fdc6b"/>
    <text x="122" y="152">more</text>
  </g>

  <rect x="1" y="1" width="731" height="166" rx="8" ry="8" fill="none" stroke="#20242c" stroke-width="1"/>
</svg>
